<svg xmlns="http://www.w3.org/2000/svg" viewBox="0 0 850 715.56"><defs><style>.cls-1{isolation:isolate;}.cls-2{fill:#dcedf9;}.cls-3{fill:#15c8ff;}.cls-4{fill:#0059d3;}.cls-5{fill:#0077eb;}.cls-6{fill:#ffaa01;}.cls-7{fill:#f88800;}.cls-8{fill:#fdcc50;}.cls-9{fill:#f9af8b;}.cls-10{fill:#fff;}.cls-11{fill:#2e3052;}.cls-12{fill:#001030;}.cls-13{fill:#524e84;}.cls-14{fill:#1f2232;}.cls-15{mix-blend-mode:screen;}.cls-16{fill:#5fddff;}.cls-17{fill:#fc8664;}.cls-18{fill:#fd664d;}.cls-19{fill:#000b29;}</style></defs><g class="cls-1"><g id="Layer_2" data-name="Layer 2"><g id="Layer_1-2" data-name="Layer 1"><path class="cls-2" d="M771.49,683.2c-43.15-32.79-117-114.15-19.77-241.86C871.92,283.4,728,218.6,590,225.36,479,230.8,354.08,91.26,229.47,116.2c-165.41,33.1-58,175.54-170.16,252.28-95.64,65.44-54.58,264.85,69.9,314.72Z"/><path class="cls-2" d="M849.38,393.57c-.67-23.42-22.48-32.5-37-15.55a73.13,73.13,0,0,0-17.8,42.34c-3.34,41.75,33.19,29.65,46.84,7.3C847.2,418.12,849.72,405.41,849.38,393.57Z"/><path class="cls-2" d="M447.39,107.93c-23-4.36-36.56,15-23.11,32.87a73,73,0,0,0,37.55,26.44C501.91,179.43,497.9,141.15,479,123,470.91,115.31,459,110.13,447.39,107.93Z"/><path class="cls-2" d="M66.9,322.51c9.21-21.54-6.79-38.93-27.12-29.64a73.1,73.1,0,0,0-33.91,31c-20.53,36.52,17.71,40.84,39.47,26.27C54.62,343.89,62.24,333.4,66.9,322.51Z"/><ellipse class="cls-2" cx="433.75" cy="689.58" rx="394.59" ry="25.98"/><path class="cls-3" d="M801.6,455.46c-24.16,24.15,2.79,26.2-14.93,44.44-16.16,16.63-40,.44-38.42,41.05.35,8.88-6.12,15.47-15.18,18.85-14.93,5.55-29.52.41-38.52-9.8-.73-.82-1.42-1.68-2.07-2.57A35.19,35.19,0,0,1,688.22,513c4.1-10.14,11.37-20.13,24.24-24.11,30.21-9.33,13.44-49.34,39-51.1,30.79-2.12,31.89-13.41,53.74-28.63C828.35,393,834.35,422.74,801.6,455.46Z"/><path class="cls-4" d="M790.77,442.27c-.67.7-56.69,58.45-96.22,107.73-.73-.82-1.42-1.68-2.07-2.57,39.63-49.32,95.3-106.72,96-107.41a1.61,1.61,0,1,1,2.31,2.25Z"/><path class="cls-3" d="M807.81,536.09c-37.85,22.28-5,33.51-32.91,50.5-25.46,15.49-49.93-12.33-61,38.72-2.43,11.17-12.6,17.29-25,18.57-20.37,2.11-36.88-9-44.79-24.58-.65-1.26-1.23-2.56-1.76-3.88a45.29,45.29,0,0,1,5.8-44.25c8.37-11.31,20.63-21.4,37.94-22.2,40.61-1.9,32.62-57.1,65-51.06,39,7.28,44-6.42,76.12-18.34C861.21,466.94,859.1,505.89,807.81,536.09Z"/><path class="cls-5" d="M798.57,516.17c-1.06.65-89.39,54.51-154.46,103.13-.65-1.26-1.23-2.56-1.76-3.88,65.22-48.62,153-102.15,154.06-102.8a2.09,2.09,0,0,1,2.86.7A2.07,2.07,0,0,1,798.57,516.17Z"/><path class="cls-3" d="M69.63,179.57c13,31.59-12.67,23.1-3.34,46.76C74.79,247.9,103,242.15,85.92,279c-3.75,8.06-.32,16.63,6.74,23.24,11.63,10.87,27.08,11.76,39.32,5.81,1-.48,2-1,2.91-1.58a35.23,35.23,0,0,0,17.2-30.14c.12-10.95-2.74-23-13.08-31.6-24.28-20.25,6.61-50.71-16.27-62.17-27.6-13.82-24.27-24.66-38.56-47.13C69,111.62,52,136.75,69.63,179.57Z"/><path class="cls-4" d="M84.71,171.56c.35.91,29.79,75.79,47.27,136.5,1-.48,2-1,2.91-1.58-17.57-60.78-46.82-135.2-47.18-136.1a1.61,1.61,0,0,0-3,1.18Z"/><path class="cls-3" d="M32.64,262.1C60,296.43,25.31,295.17,45.33,321c18.25,23.57,51,6.33,43.17,58-1.73,11.3,5.58,20.65,16.68,26.27,18.27,9.24,37.66,4.78,50.62-7,1-.94,2.06-1.94,3-3a45.25,45.25,0,0,0,10.4-43.39c-3.78-13.56-11.62-27.36-27.5-34.3-37.25-16.28-10.06-65-42.43-70.9-39-7.14-38.82-21.73-64.55-44.33C7.47,178.43-4.48,215.57,32.64,262.1Z"/><path class="cls-5" d="M48.38,246.8c.77,1,64,82.84,107.42,151.5,1-.94,2.06-1.94,3-3C115.29,326.6,52.43,245.24,51.67,244.25a2.08,2.08,0,0,0-3.29,2.55Z"/><path class="cls-3" d="M217.38,232.21c11-7.56,38.67,11.08,53.12,33.71L257.68,230c-4.64-4-12.76-9.67-25.46-14.17-19.74-7-39.52-18-28.47-25.53,10.36-7.09,35.35,8.9,50.33,29.61l-16.46-46.11a51.9,51.9,0,0,0-14.39-7.58c-12.44-4.41-24.91-11.32-17.94-16.09,6.05-4.14,20,4.2,29.53,15.82l-5.34-15c-2.44-4.34-5.91-10.55-11.38-16.21-12.67-13.11-22.26-27.86-12.48-30s25.79,23.56,28.31,46.77l2.75,7.7c-2.13-16.89,3.94-37.33,12.4-38.06s3.14,12.53-3.7,23.82c-5.2,8.59-6.64,15.41-7,18.94l13,36.33c-3.3-26.75,6.31-59,19.71-60.16s5,19.87-5.88,37.79c-8.19,13.54-10.5,24.3-11.13,29.94l15.55,43.56c-2.76-26.43,6.7-58.51,19.88-58.62,10.17-.08,7.06,14.28-5.08,34.54A86,86,0,0,0,272.64,260L280,280.53a6.74,6.74,0,0,1-3.77,1.34l-2.91-8.16c-4.12-4-12.69-10.75-27.43-16C226.11,250.74,206.33,239.78,217.38,232.21Z"/><path class="cls-3" d="M120.29,536.56c-11.32,7.12-5.2,39.88,9.82,62.14l-27.85-26c-1.85-5.86-3.8-15.55-2.89-29,1.43-20.89-.76-43.41-12.1-36.27-10.63,6.68-5.89,36,7.16,58L58.66,531.91a51.77,51.77,0,0,1-1.23-16.21c.89-13.17-.49-27.36-7.63-22.86-6.21,3.9-4.1,20,2.77,33.38L41,515.38c-3-4-7.33-9.61-10.35-16.88-7-16.84-16.72-31.5-22.56-23.38s11.36,33,31.66,44.57l6,5.58C31.05,516.6,9.87,514,5.84,521.52s10.25,7.86,23.33,6.07c9.95-1.35,16.78,0,20.17,1.09L77.52,555c-23.23-13.66-56.66-17.66-63-5.83s16.25,12.47,37,9.64c15.68-2.14,26.48,0,31.9,1.68l33.79,31.59C94,579.06,60.83,575,55.49,587c-4.11,9.3,10.3,12.15,33.72,9.06a86.15,86.15,0,0,1,34.62,2.21l15.92,14.88a6.76,6.76,0,0,0,2.74-2.92l-6.34-5.93c-2-5.36-4.82-15.92-3.75-31.51C133.83,551.93,131.63,529.42,120.29,536.56Z"/><rect class="cls-6" x="103.51" y="263.97" width="604.14" height="417.32"/><polygon class="cls-7" points="707.63 263.98 707.63 290.74 405.58 558.45 103.52 290.74 103.52 263.98 405.56 532.62 707.63 263.98"/><polygon class="cls-7" points="347.38 479.94 121.01 681.28 103.51 681.28 103.51 670.65 334.37 465.31 347.38 479.94"/><polygon class="cls-7" points="707.65 672.06 707.65 681.28 688.57 681.28 462.2 479.94 475.21 465.31 707.65 672.06"/><polygon class="cls-8" points="103.5 263.96 405.57 532.62 707.64 263.96 103.5 263.96"/><polygon class="cls-9" points="532.65 225.3 540.36 241.8 524.07 242.05 517.78 227.04 532.65 225.3"/><path class="cls-3" d="M535.23,240.76s3.35-4.49,6-4.3S564.4,253,571.43,254.3s6.37,8.51,3.43,8.51c-8.47,0-55.19.07-55.19.07s-1.41-16.71.37-21.7S529.74,241.94,535.23,240.76Z"/><path class="cls-10" d="M546.57,252.14a1,1,0,0,1-.77-.09,1,1,0,0,1-.37-1.34c.09-.16,2.24-3.88,5.12-5.34a6.77,6.77,0,0,1,7,.33,1,1,0,0,1-1.18,1.58,4.81,4.81,0,0,0-4.9-.15c-2.35,1.19-4.28,4.52-4.3,4.56A1,1,0,0,1,546.57,252.14Z"/><path class="cls-10" d="M543.63,249.37a1,1,0,0,1-.77-.09,1,1,0,0,1-.36-1.34c.09-.16,2.23-3.88,5.12-5.34a6.75,6.75,0,0,1,7,.33,1,1,0,1,1-1.17,1.57,4.86,4.86,0,0,0-4.9-.14c-2.37,1.19-4.28,4.52-4.3,4.55A1,1,0,0,1,543.63,249.37Z"/><path class="cls-10" d="M550.54,254.39a1,1,0,0,1-.77-.09,1,1,0,0,1-.36-1.34c.09-.16,2.23-3.88,5.12-5.34a6.75,6.75,0,0,1,7,.33,1,1,0,1,1-1.17,1.57,4.86,4.86,0,0,0-4.9-.14c-2.37,1.19-4.28,4.52-4.3,4.55A1,1,0,0,1,550.54,254.39Z"/><path class="cls-11" d="M537.3,230.68,530.08,233l-4,.24-6.89.4c-9.12-7.2-33.7-28.9-38.49-41.69,0,0-31.64,73.57-75.37,73.57-2.84,0,4.66-36.61,11.79-44.22,0,0,40.31-75.13,66.45-67.16C495.25,157.74,507.09,174.78,537.3,230.68Z"/><path class="cls-12" d="M530.08,233l-4,.24c-26.82-20.31-39.25-37.52-45-48.54a.86.86,0,0,0-.74-.5.45.45,0,0,0-.41.33C467.09,214.8,451.68,233,441,242.86c-11.64,10.79-20.14,14.34-20.5,14.49l-.49-1.2-.49-1.19c.08,0,8.52-3.59,19.84-14.12,10.45-9.72,25.56-27.56,38.19-57.3a3,3,0,0,1,2.69-1.9,3.41,3.41,0,0,1,3.13,1.9C489.15,194.65,501.93,212.21,530.08,233Z"/><path class="cls-13" d="M511.93,228.76c1.15,2.14,3.12,5.17,5,6.64,0,0,15.45-.71,23-4.49l-3.37-7.85A115.8,115.8,0,0,1,511.93,228.76Z"/><path class="cls-3" d="M532.15,123.3c-22,9-39.52,13.44-54.47,15.3h0c-.19,0-3.7.29-5.06.24a39.29,39.29,0,0,1-15-3.63c-3.93-1.84-9.55-6.58-15.43-12.24-7.28-7-14.95-15.45-20.26-21.47-4.13-4.67-6.83-7.9-6.83-7.9,3.67-5.45,11.78-10.41,18.84-13.06,0,0,14.73,24.54,37.06,36.59,1.21.66,2.45,1.27,3.71,1.84,5.09-.83,18.85-1.45,24.81-1.88a240.17,240.17,0,0,0,29.38-4Z"/><path class="cls-9" d="M528.32,112.32s3.06-7.73,7.22-9.93,16-10,18.54-7.65,2,13.48-8.61,22.8c-6.77,5.95-13.58,5.69-13.58,5.69Z"/><path class="cls-12" d="M554.84,101.84l-17.49,16.33a2.51,2.51,0,0,1-2.65.4L524,113.39a1.17,1.17,0,0,1-.64-.66l0-.08-.53-1.79,2.84-1.08,27.51-10.45,1.49-.56.56,1.89,0,.13a.09.09,0,0,1,0,0A1.11,1.11,0,0,1,554.84,101.84Z"/><path class="cls-14" d="M553.14,99.33l-27.51,10.45,15.56-14.54a2.55,2.55,0,0,1,2.65-.4Z"/><path class="cls-11" d="M534.17,116.76l-10.72-5.19a1,1,0,0,1-.28-1.81l17.48-16.34a2.56,2.56,0,0,1,2.65-.4L554,98.21a1,1,0,0,1,.28,1.81l-17.48,16.34A2.56,2.56,0,0,1,534.17,116.76Z"/><g class="cls-15"><path class="cls-11" d="M535.47,113.83l-8.31-4a1,1,0,0,1-.28-1.81l13.6-12.7a2.54,2.54,0,0,1,2.65-.41l8.31,4a1,1,0,0,1,.27,1.82l-13.59,12.7A2.56,2.56,0,0,1,535.47,113.83Z"/></g><path class="cls-14" d="M555.24,100.84h0a.09.09,0,0,0,0,0Z"/><path class="cls-9" d="M535.25,98.48s2.49.39,2.74,2.53-2.06,1.29-3.55.81a3.66,3.66,0,0,0-3,.25C530.75,102.83,530.86,97.84,535.25,98.48Z"/><path class="cls-9" d="M546.38,110.1a99.08,99.08,0,0,1,6.9-9.93c2-2.33,3,1.06,1.65,3.42S550.87,110.77,546.38,110.1Z"/><path class="cls-16" d="M364.31,225.89l-8.66-55.83-.51-3.31.05-2.49,1.94-79.1,21.94-7.41,1.17-.4,4.93-1.67,3.91-1.32,23.17,3.19,3.77.52,1.33.18,16.57,2.28c.16,52.44-4.87,63.76,4.81,106.42C443.61,203,425.72,260,364.31,225.89Z"/><path class="cls-3" d="M376.65,211.61h0c17.35-4.85,30-16.82,37.57-26a98.61,98.61,0,0,0,12.38-19,.87.87,0,0,0-1.58-.72,96.58,96.58,0,0,1-12.17,18.63c-7.4,9-19.77,20.69-36.67,25.41a.87.87,0,1,0,.47,1.67Z"/><path class="cls-3" d="M396.37,212.54c15.08-4.14,27.75-16.85,28.32-17.44a.86.86,0,0,0,0-1.22.87.87,0,0,0-1.23,0c-.15.15-15.06,15.1-31.19,17.79a.87.87,0,1,0,.28,1.71A38.29,38.29,0,0,0,396.37,212.54Z"/><path class="cls-3" d="M385.7,101C400.77,96.84,413.41,84.09,414,83.5a.86.86,0,0,0,0-1.22.87.87,0,0,0-1.23,0c-.14.15-15,15.14-31.14,17.87a.85.85,0,0,0-.71,1,.86.86,0,0,0,1,.71A38.14,38.14,0,0,0,385.7,101Z"/><polygon class="cls-9" points="517.89 370.39 523.96 383.9 511.52 389.25 504.28 375.3 517.89 370.39"/><path class="cls-3" d="M523.23,383.61s1.27-5.46,3.79-6.34,27.82,5.87,34.8,4.3,7.79,3.71,7.67,6.65-51.78,21.47-51.78,21.47-7.89-14.34-8.24-19.63S518.66,386.89,523.23,383.61Z"/><path class="cls-10" d="M538.17,389.52a1,1,0,0,1-.75.22,1,1,0,0,1-.87-1.08c0-.18.5-4.45,2.57-6.94a6.77,6.77,0,0,1,6.51-2.48,1,1,0,1,1-.45,1.91,4.84,4.84,0,0,0-4.55,1.83c-1.68,2-2.12,5.85-2.12,5.89A1,1,0,0,1,538.17,389.52Z"/><path class="cls-10" d="M534.37,388.15a1,1,0,0,1-.74.22,1,1,0,0,1-.87-1.08c0-.18.49-4.45,2.56-6.94a6.75,6.75,0,0,1,6.51-2.48,1,1,0,0,1,.74,1.18,1,1,0,0,1-1.18.73,4.85,4.85,0,0,0-4.56,1.83c-1.69,2-2.11,5.85-2.12,5.89A1,1,0,0,1,534.37,388.15Z"/><path class="cls-10" d="M542.71,390a1,1,0,0,1-.74.23,1,1,0,0,1-.88-1.09c0-.18.5-4.45,2.57-6.94a6.77,6.77,0,0,1,6.51-2.48,1,1,0,0,1,.74,1.18,1,1,0,0,1-1.18.73,4.85,4.85,0,0,0-4.56,1.83c-1.69,2-2.11,5.85-2.12,5.89A1,1,0,0,1,542.71,390Z"/><path class="cls-11" d="M521,373c-1.29,1.47-5.28,3.69-9.61,5.63-.79.36-1.6.7-2.4,1-1.41.58-2.8,1.11-4.12,1.56,0,0-29.51-54.39-40.84-93.84,0,0-99.89-12.33-103.34-47.32a18.69,18.69,0,0,1,0-3.59,25.54,25.54,0,0,1,3.61-10.58c2.28-3.93,36.46-.1,54.94,5.08,0,0,50.07,19.51,68.58,39.61C497.21,280.76,521,373,521,373Z"/><path class="cls-12" d="M511.42,378.64c-.79.36-1.6.7-2.4,1-14.92-24.7-35.64-82.41-40.26-96.26a2.77,2.77,0,0,0-2.1-1.82c-48.53-9.12-76.5-21.85-91.41-30.93a96.06,96.06,0,0,1-14.53-10.59,18.69,18.69,0,0,1,0-3.59,88.65,88.65,0,0,0,16.19,12.15c14.72,8.9,42.33,21.41,90.25,30.42a5.34,5.34,0,0,1,4.08,3.54C475.83,296.46,496.64,354.42,511.42,378.64Z"/><path class="cls-13" d="M499.57,375.53l4.71,7.54S516,381,524,373L521,366.28S506.75,373.32,499.57,375.53Z"/><path class="cls-9" d="M340.59,246.54s6.8,9.22,6.24,14-6.72,13.76-11.64,14.19,5.65-11.55,3.16-11.16c-3,.47-23.41,17.19-27.71,17.19s5.06-7.77,8.71-9.73c0,0-9.65,4.31-11.89,6.55s-3.88-2.57,7.35-9.39c0,0-10.3,5.84-11,5.93-2.29.31,4.24-7.35,9.87-10.12,0,0-8.25,4-9.09,4-1.16,0,1.33-2.67,7.45-6.07,5.51-3.05,14.54-17.07,14.54-17.07Z"/><path class="cls-3" d="M357.12,85.17S334.24,129.11,329,175.08l-2.45,69.8s2.35,5,14,1.66l11.28-69.79,8.64-31.93S364.44,105.52,357.12,85.17Z"/><circle class="cls-11" cx="402.5" cy="33.25" r="25.28" transform="translate(256.42 409.77) rotate(-73.52)"/><path class="cls-11" d="M427.78,33.11s7.39-.7,7.67-7.7c.24-6-7.27-3.4-5.86-7.85S433.06,9.22,427.38,7c-5-1.91-5.69,1.61-11.55-4.71C408.91-5.13,400.3,7.79,393.09,7c-10.62-1.24-13,4.48-14.88,9.05s1.59,8.63,1.59,8.63Z"/><path class="cls-17" d="M422,43.88s4.88-4.57,7,.3-4.25,17-10.88,12.57Z"/><path class="cls-18" d="M420.41,53.06a.6.6,0,0,0,.66-.34c1.82-3.77,6.21-4.65,6.25-4.66a.6.6,0,0,0,.49-.72.62.62,0,0,0-.72-.49c-.2,0-5,1-7.13,5.34a.63.63,0,0,0,.29.82Z"/><path class="cls-18" d="M424.91,51.8a.62.62,0,0,0,.68-.85,5.78,5.78,0,0,0-2-2.24.62.62,0,0,0-.69,1,4.5,4.5,0,0,1,1.51,1.7A.62.62,0,0,0,424.91,51.8Z"/><path class="cls-9" d="M389.13,62.86l-2.26,12.77s4.26,6.55,9.33,7.91,9.28-4.2,9.28-4.2l2.17-12.28Z"/><path class="cls-17" d="M389.13,62.86l-1,5.66c2.78,4.45,8.75,6.49,18.07,6.76l1.45-8.22Z"/><path class="cls-9" d="M381.47,27.68a126,126,0,0,0-1.2,16.42c0,1.28.08,2.49.19,3.59,1,9.89,4.9,27.21,24.9,23.82,8.84-1.5,14.33-10.08,17.71-19.19a92,92,0,0,0,4.34-17.25,13.52,13.52,0,0,0-4.75-12.54c-10-8.26-22.14-8-30.38-6.38A13.48,13.48,0,0,0,381.47,27.68Z"/><path class="cls-11" d="M412.23,43.87c-.24,1.36.26,2.59,1.13,2.75s1.77-.83,2-2.2-.27-2.59-1.14-2.74S412.47,42.51,412.23,43.87Z"/><path class="cls-11" d="M393.85,40.62c-.24,1.36.27,2.59,1.13,2.75s1.77-.83,2-2.19-.27-2.6-1.13-2.75S394.09,39.26,393.85,40.62Z"/><path class="cls-11" d="M420.24,37.47s-6.07-3.74-11.49-2.45v2.41A21.48,21.48,0,0,1,419.4,40.1C419.93,39.09,420.47,38.65,420.24,37.47Z"/><path class="cls-11" d="M390.35,32.19s7-1.43,11.63,1.63l-.83,2.26A21.51,21.51,0,0,0,390.23,35C390.09,33.81,389.73,33.22,390.35,32.19Z"/><path class="cls-17" d="M401.82,52.05a6.56,6.56,0,0,1-2.12-.86.62.62,0,0,1,.66-1c.51.32,1.76.9,2.39.66.13,0,.3-.15.4-.51a92.39,92.39,0,0,0,1.28-9.36.62.62,0,0,1,.67-.55.6.6,0,0,1,.55.67,90,90,0,0,1-1.31,9.58A1.9,1.9,0,0,1,403.19,52,2.55,2.55,0,0,1,401.82,52.05Z"/><path class="cls-10" d="M408.79,57.11c-.93,2.4-3.39,6.7-8.94,5.72s-6.39-5.45-6.41-8.44Z"/><path class="cls-17" d="M399.36,66a6.52,6.52,0,0,1-2.81-1.35.62.62,0,0,1,.81-.93,5.25,5.25,0,0,0,2.22,1.07,5,5,0,0,0,2.32-.26.61.61,0,1,1,.45,1.14A6.09,6.09,0,0,1,399.36,66Z"/><path class="cls-11" d="M421.89,48c.9-2.42,1.93-5.57,1.89-7.28-.07-3-2.19-5.19-.89-7.87s-1.14-6.25-3.25-7.15-7.43-.71-12.07-4c-4.42-3.15-13.1-3-15-.14-2.32,3.46-.13,4.22-5.36,7.47-2.09,1.3-.7,5.88-.87,8.66a18.9,18.9,0,0,1-.47,3.24l-.13.68-5.41-1c.15-4.33.64-9.06,1.14-13a13.5,13.5,0,0,1,10.82-11.53c8.25-1.61,20.38-1.89,30.38,6.38a13.52,13.52,0,0,1,4.75,12.54,97.84,97.84,0,0,1-3,13.4Z"/><path class="cls-9" d="M382.3,43.44a22.72,22.72,0,0,0,.42-4.27c0-2-.25-3.79-2.06-4.93-1.45-.91-3.12-1.22-4.62.33-3.71,3.83-2.83,17.94,4.9,16.07Z"/><path class="cls-17" d="M380.25,46.46a.63.63,0,0,1-.39-.64c.41-4.16-2.88-7.19-2.91-7.22a.63.63,0,0,1-.05-.87.61.61,0,0,1,.87,0c.16.14,3.79,3.47,3.32,8.26a.63.63,0,0,1-.68.56Z"/><path class="cls-17" d="M377.07,43a.65.65,0,0,1-.28-.21.61.61,0,0,1,.14-.86,5.51,5.51,0,0,1,2.83-.9.62.62,0,0,1,.65.58.63.63,0,0,1-.59.65,4.5,4.5,0,0,0-2.17.66A.61.61,0,0,1,377.07,43Z"/><path class="cls-9" d="M663.89,336.67s-8.32,15.79-18.12,28.29a74.66,74.66,0,0,1-8.88,9.72c-4.82,4.26-9.51,6.49-13.34,4.6-14.19-7-45.83-62.79-45.83-62.79l7.79-9.05s14.08,15.93,24.38,25.46c9.5,8.79,16.8,15.36,16.8,15.36,1.31-2,2.71-4.11,4.17-6.38s3.15-5,4.79-7.59c11.86-19.08,26.13-39.94,26.13-39.94Z"/><path class="cls-9" d="M587.58,312.91s3.21-5.27,2-10-2.45-15.4-7.61-15.11c-1.88.11.87,4.57-.39,8.7a69,69,0,0,1-9.23-5.4c-3.25-2.4-10-6.3-13.12-8.09a1,1,0,0,0-1.35,1.3c.81,1.36,2.77,3.39,7.31,6.23,0,0-11.28-6.32-13.17-4.93s12.36,9,12.36,9-11.51-4.66-12.45-3c-.57,1,10.71,7.66,10.71,7.66s-11.21-3.46-9.13-.83c.61.76,21.91,10.4,26.35,21.59C579.83,320.13,586,316.74,587.58,312.91Z"/><path class="cls-17" d="M645.77,365a74.66,74.66,0,0,1-8.88,9.72l-6-32.8c1.55-2.41,3.15-5,4.79-7.59Z"/><path class="cls-3" d="M662.22,292.88l-30,43.26,9.54,38.54,23.53-37.54S669.71,312,662.22,292.88Z"/><polygon class="cls-9" points="677.61 662.99 677.61 676.65 690.35 676.45 691.19 661.98 677.61 662.99"/><path class="cls-11" d="M710,463.48c-.09,1.62-.53,9.41-1.2,20.28-1.79,29.85-5.15,82.89-7.12,94.81-2,12.22-1.11,52.32-.46,73.3a12.62,12.62,0,0,1-3.61,9.2,13.38,13.38,0,0,1-3,2.25,13.09,13.09,0,0,1-6.4,1.66H678.5a12.84,12.84,0,0,1-13-13.11c.54-17.74,1.21-50.11-.06-75.11-1.21-23.8.55-65.91,1.91-92.16h0c.55-10.48,1-18.41,1.22-21.66Z"/><path class="cls-12" d="M668.61,462.94l41.36.54c-.09,1.62-.53,9.41-1.2,20.28-14,1.69-28.67,2.39-41.38.84C667.94,474.12,668.41,466.19,668.61,462.94Z"/><path class="cls-12" d="M697.42,614.45c.36,13.42.74,27.29.49,38.48-.07,3.14-.18,5.83-.33,8.13a12.48,12.48,0,0,1-3,2.26c.24-2.67.43-6.09.52-10.45.25-11.12-.13-25-.49-38.35-.45-16.36-.86-31.82,0-38.4,2-14.4,6.43-92.45,7.59-113.29l2.78.12c-1.16,20.82-5.61,99-7.61,113.53C696.56,582.84,697,598.2,697.42,614.45Z"/><path class="cls-3" d="M680.87,676.14s-2.64-3.64-4.8-3.53S657,685.33,651.22,686.28s-4.72,5.09-3.72,7.22,45.56.19,45.56.19,1.51-13,.15-17S685.32,677.17,680.87,676.14Z"/><path class="cls-10" d="M671.46,685a.82.82,0,0,0,.63-.06.77.77,0,0,0,.32-1.06,12.15,12.15,0,0,0-4.07-4.34,5.62,5.62,0,0,0-5.66.13.78.78,0,0,0-.19,1.1.81.81,0,0,0,1.11.18,4,4,0,0,1,4,0,10.78,10.78,0,0,1,3.41,3.7A.81.81,0,0,0,671.46,685Z"/><path class="cls-10" d="M673.89,682.84a.82.82,0,0,0,.63-.05.78.78,0,0,0,.32-1.07c-.07-.12-1.74-3.13-4.06-4.34a5.63,5.63,0,0,0-5.67.14.78.78,0,0,0-.19,1.09.82.82,0,0,0,1.12.19,4,4,0,0,1,4,0,10.76,10.76,0,0,1,3.42,3.7A.78.78,0,0,0,673.89,682.84Z"/><path class="cls-10" d="M668.19,686.72a.82.82,0,0,0,.63-.06.78.78,0,0,0,.32-1.06,12.15,12.15,0,0,0-4.07-4.34,5.59,5.59,0,0,0-5.66.13.78.78,0,0,0-.19,1.1.81.81,0,0,0,1.11.18,4,4,0,0,1,4,0,10.67,10.67,0,0,1,3.41,3.7A.78.78,0,0,0,668.19,686.72Z"/><polygon class="cls-9" points="739.69 662.99 741.07 676.63 752.44 676.45 753.27 661.98 739.69 662.99"/><path class="cls-11" d="M763.11,576.76c-1.27,25-.6,57.37-.05,75.11a12.85,12.85,0,0,1-13,13.11h-9.71a13.36,13.36,0,0,1-6-1.41,13,13,0,0,1-2.94-2.07,12.47,12.47,0,0,1-4.06-9.63c.65-21,1.56-61.08-.46-73.3s-5.46-66.79-7.24-96.33c-.58-9.86-1-16.92-1.09-18.66l41.44.54c.12,2.1.31,5.34.54,9.45C761.93,497.19,764.52,549.22,763.11,576.76Z"/><path class="cls-12" d="M760.59,473.57a411.87,411.87,0,0,1-40.89,8.67c-.58-9.86-1-16.92-1.09-18.66l41.44.54C760.17,466.22,760.36,469.46,760.59,473.57Z"/><path class="cls-12" d="M733.87,652.87c.1,4.49.29,8,.54,10.69a12.7,12.7,0,0,1-2.95-2.06c-.17-2.4-.3-5.23-.37-8.57-.24-11.19.13-25.06.5-38.48.44-16.25.85-31.61,0-38-2-14.5-6.45-92.75-7.61-113.55l2.78-.12c1.16,20.81,5.6,98.91,7.59,113.31.91,6.58.49,22,0,38.4C734,627.91,733.63,641.75,733.87,652.87Z"/><path class="cls-3" d="M745.5,674.53s5.8-1.52,7.4-1.49,12.35,11.81,16,12.5c6.56,1.26,6.57,11.29,2.58,11.79-11.55,1.44-31.31-3.34-31.31-3.34s-1.82-12.87-1-16.92S742.27,675.72,745.5,674.53Z"/><path class="cls-10" d="M755.06,685.52a.81.81,0,0,1-.62-.11.79.79,0,0,1-.22-1.09c.09-.12,2-3,4.48-3.94a5.6,5.6,0,0,1,5.62.67.76.76,0,0,1,.08,1.1.79.79,0,0,1-1.12.08,4,4,0,0,0-4-.4,10.74,10.74,0,0,0-3.76,3.37A.8.8,0,0,1,755.06,685.52Z"/><path class="cls-10" d="M752.85,683.15a.85.85,0,0,1-.62-.11A.78.78,0,0,1,752,682a12.2,12.2,0,0,1,4.47-3.94,5.61,5.61,0,0,1,5.63.66.78.78,0,0,1,.08,1.11.81.81,0,0,1-1.13.08,4,4,0,0,0-4-.4,10.74,10.74,0,0,0-3.76,3.36A.78.78,0,0,1,752.85,683.15Z"/><path class="cls-10" d="M758.15,687.54a.81.81,0,0,1-.62-.11.78.78,0,0,1-.22-1.09c.09-.12,2.05-3,4.48-3.94a5.56,5.56,0,0,1,5.62.67.77.77,0,0,1,.08,1.1.81.81,0,0,1-1.13.08,4,4,0,0,0-4-.4,10.74,10.74,0,0,0-3.76,3.36A.78.78,0,0,1,758.15,687.54Z"/><path class="cls-16" d="M769.45,467.67a230.41,230.41,0,0,1-112.14,0c-.2-13.67-.39-68.33.68-113.18,0-.89,0-1.76.07-2.64l0-1.29v-.07c0-.56,0-1.11,0-1.66.8-29.59,2.19-53.74,4.58-57h0c5.57-7.51,33.57-19.48,41.32-24.83.65,1,4.46,6.67,9.45,7.09,5.49.47,10.36-5.85,10.36-5.85v-1.19c7.78,5.34,33.15,16.43,38.72,23.91C768.65,299.19,769.71,444.38,769.45,467.67Z"/><path class="cls-5" d="M669.4,333.43c-3.21,4.25-7.9,13.9-10,18.35-.29.61-.53,1.13-.71,1.52s-.37.81-.38.83a.83.83,0,0,1-.31.36c0-.89,0-1.76.07-2.64l0-1.29v-.07c.43-.91.94-2,1.51-3.15,2.4-4.89,5.82-11.49,8.41-14.92a.87.87,0,0,1,1.21-.18A.84.84,0,0,1,669.4,333.43Z"/><path class="cls-5" d="M741.06,300.41h0a60.79,60.79,0,0,1-33.35-11.53A58.13,58.13,0,0,1,695.9,278a.82.82,0,0,1,.18-1.18.87.87,0,0,1,1.21.17c.16.21,16.2,20.86,43.8,21.73a.86.86,0,0,1,.84.87A.87.87,0,0,1,741.06,300.41Z"/><path class="cls-5" d="M691,439.15a.85.85,0,0,1-.05-1.7c24.39-1.57,39-13.68,46.86-23.56a65.09,65.09,0,0,0,11.48-21.38.87.87,0,0,1,1.06-.61.85.85,0,0,1,.62,1,65.46,65.46,0,0,1-11.75,21.95c-8.13,10.18-23.09,22.66-48.16,24.27Z"/><path class="cls-5" d="M704.06,424a.86.86,0,0,1-.83-.63.84.84,0,0,1,.61-1c21.2-5.62,25.29-23,25.33-23.14a.87.87,0,0,1,1-.65.85.85,0,0,1,.66,1,30,30,0,0,1-4.86,10c-3.49,4.88-10.1,11.33-21.71,14.41A.91.91,0,0,1,704.06,424Z"/><path class="cls-9" d="M796.91,466.16c-.53,7.44-5.09,13-5.11,17.85s-5.79,1.7-3.12-8-1.29-19-3.4-18.94.67,10.9-1.55,14.49-3.9-3.95-5.85-8.61c-2-4.84-.89-14.88.94-22s-7.16-51.89-6-64.53l-3.25-16.39-1.89-9.56-.36-10,17.33-6.73c.66,3.2,1.33,6.52,2,9.86.29,1.47.58,3,.86,4.42,2.32,11.95,4.4,23.72,5.25,31.26,2.34,20.88-1.5,63.45-1.5,63.45S797.41,459.19,796.91,466.16Z"/><path class="cls-17" d="M787.52,348.13c-3.91,4.38-10.16,9.95-17.93,12l-1.89-9.56-.36-10,17.33-6.73c.66,3.2,1.33,6.52,2,9.86C787,345.18,787.24,346.66,787.52,348.13Z"/><path class="cls-3" d="M792.33,338.67a36.49,36.49,0,0,1-5.67,5c-4.37,3.21-11,6.78-18.95,6.84-1-27.65-2.37-51-4.42-57.88C767,297.09,784.51,318.87,792.33,338.67Z"/><path class="cls-5" d="M755.82,330.65c3.21,4.25,7.9,13.9,10,18.35.29.62.52,1.13.71,1.52l.38.83a.85.85,0,0,0,.79.5h0c0-.43,0-.86,0-1.29h.76l-.8-1.72c-.51-1.09-1.21-2.57-2-4.26-2.39-4.9-5.81-11.5-8.4-14.93a.88.88,0,0,0-1.21-.17A.83.83,0,0,0,755.82,330.65Z"/><path class="cls-11" d="M740.15,222.61c0,15-9.42,25.3-24.71,25.3s-25.94-11.1-25.94-26.08,9-26.33,24.34-26.33C732.18,195.5,740.15,207.63,740.15,222.61Z"/><path class="cls-17" d="M736.71,229.06s4.25-5.55,7.41-1-1.31,18.14-9,14.83Z"/><path class="cls-18" d="M736.77,238.74a.65.65,0,0,0,.63-.47c1.2-4.18,5.62-5.88,5.66-5.89a.64.64,0,0,0,.38-.83.65.65,0,0,0-.84-.37c-.2.08-5.08,1.93-6.46,6.75a.64.64,0,0,0,.45.79Z"/><path class="cls-18" d="M741.23,236.63a.65.65,0,0,0,.36-.1.63.63,0,0,0,.19-.88,5.87,5.87,0,0,0-2.45-1.94.66.66,0,0,0-.86.32.64.64,0,0,0,.33.85,4.59,4.59,0,0,1,1.88,1.46A.67.67,0,0,0,741.23,236.63Z"/><path class="cls-17" d="M692.93,229.06s-4.25-5.55-7.41-1,1.31,18.14,9.05,14.83Z"/><path class="cls-18" d="M692.88,238.74a.64.64,0,0,1-.63-.47c-1.2-4.18-5.63-5.88-5.67-5.89a.64.64,0,0,1-.38-.83.65.65,0,0,1,.84-.37c.21.08,5.09,1.93,6.47,6.75a.65.65,0,0,1-.46.79Z"/><path class="cls-18" d="M688.41,236.63a.64.64,0,0,1-.35-.1.63.63,0,0,1-.2-.88,6,6,0,0,1,2.45-1.94.67.67,0,0,1,.87.32.64.64,0,0,1-.33.85,4.67,4.67,0,0,0-1.89,1.46A.65.65,0,0,1,688.41,236.63Z"/><path class="cls-9" d="M704.36,254.43v13.48s4.11,6.86,9.66,7.33,10.46-5.91,10.46-5.91V255.38Z"/><path class="cls-17" d="M704.36,254.43v6c3.73,4,10.34,5.06,20.12,3.64v-8.67Z"/><path class="cls-9" d="M739,228.63a80.85,80.85,0,0,1-1.12,8.87c-1.84,9.94-6,19.71-15,22.85-20.27,7.09-27.52-10-30.42-19.88-.31-1.1-.6-2.32-.85-3.64-.46-2.36-.82-5-1.1-7.66-.33-3.23-.55-6.49-.69-9.36A14,14,0,0,1,699,206.05c8.31-3.13,20.94-5.61,32.9,1a14,14,0,0,1,7.3,12C739.28,221.77,739.24,225.07,739,228.63Z"/><path class="cls-11" d="M736.47,229.17c-.68,1.22-4.48,12.7-5.54,14.31-2.39-5.16-13.95-1.41-13.95-1.41a7.48,7.48,0,0,1-2.24.35,7.34,7.34,0,0,1-2.18-.33l-.06,0s-11.7-3.59-14,1.82c-1.07-1.6-4.37-12.87-5-14.72h-3c.28,2.66.64,5.3,1.1,7.66.25,1.32.54,2.54.85,3.64,2.9,9.93,10.15,27,30.42,19.88,9-3.14,13.11-12.91,15-22.85a80.85,80.85,0,0,0,1.12-8.87Zm-10.9,21h0a13.11,13.11,0,0,1-2.73,2c-5.13,2.72-5.69,2.31-7.72,2.4a15.66,15.66,0,0,1-7.79-2.08,22.72,22.72,0,0,1-3.71-2.77s-2.08-7,11.15-5.23C728,242.29,725.79,248.81,725.57,250.17Z"/><path class="cls-11" d="M723.52,230.82c0,1.44.75,2.6,1.69,2.6s1.69-1.16,1.69-2.6-.76-2.61-1.69-2.61S723.52,229.38,723.52,230.82Z"/><path class="cls-11" d="M703.59,230.76c0,1.44.76,2.61,1.69,2.61s1.69-1.17,1.69-2.61-.76-2.6-1.69-2.6S703.59,229.32,703.59,230.76Z"/><path class="cls-11" d="M731.91,223.46s-6.48-2.51-11.46-.4l.5,2.72s7.32-.61,11,.86A4.64,4.64,0,0,0,731.91,223.46Z"/><path class="cls-11" d="M699.7,223.46s6.48-2.51,11.46-.4l-.5,2.72s-7.31-.61-11,.86A4.64,4.64,0,0,1,699.7,223.46Z"/><path class="cls-17" d="M714.6,240.9a7,7,0,0,1-2.37-.49.64.64,0,0,1-.36-.83.65.65,0,0,1,.85-.35c.59.23,2,.6,2.63.24a.72.72,0,0,0,.32-.6,95.22,95.22,0,0,0-.4-9.8.65.65,0,0,1,1.3-.11,91.16,91.16,0,0,1,.4,10,2,2,0,0,1-1,1.57A2.86,2.86,0,0,1,714.6,240.9Z"/><path class="cls-10" d="M723.52,245.59c-.54,2.64-2.31,7.48-8.29,7.48s-7.68-4.43-8.26-7.48Z"/><path class="cls-11" d="M690.55,229.17h3c-.32-2.91-.79-8,1.65-8.78,7.72-2.32-2.28-7.67,1.2-10.33s12.15-1.53,18.18-1.72,15.82-.1,18.19.43,1.07,4.39.2,7.38,2.91,6.29,3.54,9.39a12.82,12.82,0,0,1,0,3.63h2.47c.29-3.76.34-7.27.29-10.11a14,14,0,0,0-7.29-12c-12-6.65-24.6-4.17-32.91-1a14,14,0,0,0-9.17,13.76C690,222.68,690.22,225.94,690.55,229.17Z"/><path class="cls-10" d="M256.75,562H106.4c2.48-15.09,14.45-26,28.39-26l46.79.13,46.78-.13C242.3,536,254.27,547,256.75,562Z"/><rect class="cls-10" x="118.23" y="559.88" width="8.19" height="140.18"/><rect class="cls-10" x="236.73" y="559.88" width="8.19" height="140.18"/><rect class="cls-2" x="126.42" y="599.16" width="110.32" height="7.9"/><path class="cls-3" d="M144.77,373.33S119.66,406.82,116.31,436c-2.36,20.63,28.46,51.45,28.46,51.45l10.61-5.28L144.8,458.33c-3.77-11.61-8.4-16.21-5-27.93l7.67-16.52Z"/><path class="cls-3" d="M223.89,372.82s24.79,35.71,26.84,65c1.77,25.29-28.57,49.62-28.57,49.62l-8.76-4.36L225.53,459c3.77-11.62,5.56-18.63.42-31.27l-6.51-13.86Z"/><path class="cls-16" d="M149.88,449.59l-16.64,53s72.06,9.19,94.1,3.25l-11.2-57.67,7.75-75.3A107.27,107.27,0,0,0,190,364.53c-17-1.23-27.81,1.58-45.23,8.8Z"/><path class="cls-5" d="M167.9,389.29c15.89-1.86,30.69-12.78,31.36-13.28a.89.89,0,0,0,.18-1.24.87.87,0,0,0-1.24-.18c-.18.12-17.58,13-34.32,13.19a.89.89,0,0,0,0,1.78A38.38,38.38,0,0,0,167.9,389.29Z"/><polygon class="cls-9" points="180.71 672.98 182 684.67 194.44 684.95 195.48 675.25 180.71 672.98"/><path class="cls-12" d="M178.75,487.61s-32.19-1.76-43.1,7.16-8.71,34.53,2.4,41.52,30,20.73,30,20.73l12,119.77,15.92.54S210.73,557,203.29,533.72,178.75,487.61,178.75,487.61Z"/><path class="cls-11" d="M197.53,671.38a13.32,13.32,0,0,1-.41,8.21l-18.32-.41a21.11,21.11,0,0,1-.35-8Z"/><path class="cls-10" d="M224.32,486.71h-84.5L132,441a6.48,6.48,0,0,1,6.39-7.56h87.35a6.47,6.47,0,0,1,6.38,7.56Z"/><path class="cls-2" d="M217.53,496.64H146.7a6.88,6.88,0,0,1-6.88-6.88v-3.05H224.4v3.05A6.87,6.87,0,0,1,217.53,496.64Z"/><path class="cls-2" d="M189.6,462a7.34,7.34,0,1,1-7.34-7.34A7.34,7.34,0,0,1,189.6,462Z"/><polygon class="cls-9" points="127.89 640.09 125.14 651.66 136.29 653.87 140.84 643.54 127.89 640.09"/><path class="cls-11" d="M195.11,485.63s-21.56-7.43-34.2,8.18S127.1,641.25,127.1,641.25l14.51,6,46.65-117.07s38,21.67,42.59-9.14C234.49,496.64,195.11,485.63,195.11,485.63Z"/><path class="cls-13" d="M144.9,641.19a13.78,13.78,0,0,1-3.05,7.92L124,642.8a21.93,21.93,0,0,1,2.24-8Z"/><path class="cls-3" d="M133.65,649.76s-6.76-3.43-8.75-3.82-18.44,11.27-23.09,11.15c-8.45-.2-11.16,12.2-6.35,13.89,13.88,4.88,39.58,4.28,39.58,4.28s5.71-15.43,5.82-20.64S137.32,652.09,133.65,649.76Z"/><path class="cls-10" d="M118.88,660.78a1.05,1.05,0,0,0,.8,0,1,1,0,0,0,.56-1.29c-.07-.17-1.74-4.2-4.47-6.07a7.13,7.13,0,0,0-7.14-.69,1,1,0,0,0-.39,1.35,1,1,0,0,0,1.37.4,5,5,0,0,1,5,.56c2.23,1.53,3.73,5.14,3.74,5.17A1,1,0,0,0,118.88,660.78Z"/><path class="cls-10" d="M122.25,658.44a1.05,1.05,0,0,0,.8,0,1,1,0,0,0,.56-1.29c-.07-.17-1.74-4.2-4.47-6.07a7.08,7.08,0,0,0-7.13-.69,1,1,0,0,0-.4,1.35,1,1,0,0,0,1.37.4,5,5,0,0,1,5,.56c2.24,1.54,3.73,5.14,3.74,5.17A1,1,0,0,0,122.25,658.44Z"/><path class="cls-10" d="M114.52,662.45a1,1,0,0,0,.8,0,1,1,0,0,0,.56-1.28c-.07-.17-1.74-4.2-4.47-6.07a7.07,7.07,0,0,0-7.14-.69,1,1,0,0,0-.39,1.34,1,1,0,0,0,1.37.4,5.08,5.08,0,0,1,5,.57c2.24,1.53,3.73,5.13,3.74,5.17A1,1,0,0,0,114.52,662.45Z"/><path class="cls-3" d="M186.8,684.18s6.92-2.1,8.86-2.14,15.44,13.64,19.83,14.31c8,1.21,8.45,13.31,3.66,14.1-13.85,2.28-37.89-2.56-37.89-2.56s-2.8-15.44-2-20.35S183,685.76,186.8,684.18Z"/><path class="cls-10" d="M198.84,697a1,1,0,0,1-.75-.11.93.93,0,0,1-.31-1.3c.09-.15,2.33-3.66,5.21-5a6.76,6.76,0,0,1,6.81.54.93.93,0,0,1,.15,1.33,1,1,0,0,1-1.36.15,4.79,4.79,0,0,0-4.8-.3c-2.34,1.06-4.35,4.2-4.37,4.23A.92.92,0,0,1,198.84,697Z"/><path class="cls-10" d="M196.07,694.22a.91.91,0,0,1-.75-.11.93.93,0,0,1-.32-1.3c.1-.15,2.33-3.65,5.21-5a6.76,6.76,0,0,1,6.81.54.93.93,0,0,1,.15,1.33,1,1,0,0,1-1.35.15,4.83,4.83,0,0,0-4.8-.3c-2.36,1.07-4.36,4.2-4.38,4.23A.92.92,0,0,1,196.07,694.22Z"/><path class="cls-10" d="M202.66,699.27a1,1,0,0,1-.75-.11.93.93,0,0,1-.31-1.3c.09-.15,2.32-3.66,5.2-5a6.75,6.75,0,0,1,6.82.54.94.94,0,0,1,.15,1.33,1,1,0,0,1-1.36.14,4.86,4.86,0,0,0-4.8-.3c-2.36,1.07-4.35,4.21-4.37,4.24A1,1,0,0,1,202.66,699.27Z"/><path class="cls-11" d="M205.6,297.81s10.25,15.87,9.12,32.4,1.51,35.62-13.28,34.78-41.18,5.93-49.57-6.95S205.6,297.81,205.6,297.81Z"/><path class="cls-19" d="M209.4,327s2.66,24-8.71,30.56-19.61-.77-19.61-.77S205.05,323.38,209.4,327Z"/><path class="cls-17" d="M162.16,326.88s-4.08-5.45-7.12-.94,1.26,17.79,8.69,14.55Z"/><path class="cls-18" d="M162.11,336.38a.63.63,0,0,1-.61-.46c-1.15-4.1-5.4-5.77-5.44-5.78a.63.63,0,1,1,.44-1.18c.2.08,4.89,1.89,6.21,6.62a.63.63,0,0,1-.43.78Z"/><path class="cls-18" d="M157.82,334.31a.59.59,0,0,1-.34-.1.62.62,0,0,1-.19-.87,5.81,5.81,0,0,1,2.36-1.9.63.63,0,0,1,.83.32.63.63,0,0,1-.32.83,4.66,4.66,0,0,0-1.82,1.43A.61.61,0,0,1,157.82,334.31Z"/><path class="cls-17" d="M204.24,326.88s4.08-5.45,7.12-.94-1.26,17.79-8.69,14.55Z"/><path class="cls-18" d="M204.29,336.38a.63.63,0,0,0,.61-.46c1.15-4.1,5.4-5.77,5.45-5.78a.64.64,0,0,0,.36-.81.63.63,0,0,0-.81-.37c-.2.08-4.88,1.89-6.21,6.62a.64.64,0,0,0,.43.78Z"/><path class="cls-18" d="M208.59,334.31a.63.63,0,0,0,.34-.1.63.63,0,0,0,.18-.87,5.82,5.82,0,0,0-2.35-1.9.63.63,0,0,0-.52,1.15,4.66,4.66,0,0,1,1.82,1.43A.62.62,0,0,0,208.59,334.31Z"/><path class="cls-9" d="M193.25,351.77V365s-3.94,6.73-9.27,7.19-10.07-5.8-10.07-5.8V352.7Z"/><path class="cls-17" d="M193.25,351.77v5.86c-3.58,4-9.93,5.38-19.33,4V352.7Z"/><path class="cls-9" d="M207.19,317.81a127.74,127.74,0,0,1-1.71,16.7c-.25,1.28-.52,2.49-.83,3.57-2.78,9.74-9.74,26.45-29.23,19.49-8.61-3.07-12.59-12.66-14.37-22.41a93.76,93.76,0,0,1-1.3-18.09,13.79,13.79,0,0,1,7-11.74c11.5-6.52,23.64-4.09,31.63-1A13.74,13.74,0,0,1,207.19,317.81Z"/><path class="cls-11" d="M174.62,328.92c0,1.41-.73,2.56-1.62,2.56s-1.63-1.15-1.63-2.56.73-2.56,1.63-2.56S174.62,327.51,174.62,328.92Z"/><path class="cls-11" d="M194.69,328.92c0,1.41-.73,2.56-1.63,2.56s-1.62-1.15-1.62-2.56.72-2.56,1.62-2.56S194.69,327.51,194.69,328.92Z"/><path class="cls-11" d="M169.78,320.42a26.71,26.71,0,0,1,6.95-1.05,1.22,1.22,0,0,1,1.2,1.42v0a1.22,1.22,0,0,1-1.25,1c-2-.1-7.09.18-9.51,1.16a1.82,1.82,0,0,1,.55-1.29A4.15,4.15,0,0,1,169.78,320.42Z"/><path class="cls-11" d="M196,320.47a27.23,27.23,0,0,0-6.95-1,1.2,1.2,0,0,0-1.2,1.41v0a1.2,1.2,0,0,0,1.24,1c2-.09,7.1.18,9.52,1.17a1.83,1.83,0,0,0-.55-1.3A4.19,4.19,0,0,0,196,320.47Z"/><path class="cls-17" d="M183.42,339.32a2.7,2.7,0,0,1-1.37-.33,1.93,1.93,0,0,1-.91-1.53,91.51,91.51,0,0,1,.38-9.86.63.63,0,1,1,1.25.11,92.86,92.86,0,0,0-.38,9.62.69.69,0,0,0,.31.58c.59.36,2,0,2.52-.24a.63.63,0,0,1,.47,1.17A6.8,6.8,0,0,1,183.42,339.32Z"/><path class="cls-10" d="M175.44,343.28c.48,2.39,2.06,6.79,7.37,6.79s6.83-4,7.34-6.79Z"/><path class="cls-17" d="M182.74,353.73a6.24,6.24,0,0,1-3-.86.63.63,0,0,1,.66-1.07h0a5,5,0,0,0,2.29.68,5.3,5.3,0,0,0,2.41-.68.63.63,0,0,1,.86.21.62.62,0,0,1-.21.86A6.52,6.52,0,0,1,182.74,353.73Z"/><path class="cls-11" d="M209.72,316.78a2.05,2.05,0,0,1-1.51,1.16,38.14,38.14,0,0,1-.23,4.65c-.77,9.08-3.06,10.67-3.58,8.43-.34-1.49-.32-10-.16-12.83a29.68,29.68,0,0,1-3.32-.42L198.81,309l-.74,8.7c-3.15,1.1-10.53-.66-10.53-.66l-2.47-8.69-1.53,8.36c-4.73,2.31-10.66.78-10.66.78l-1.36-9-3.14,9s-10.11,3.62-10.21,0c-.07-2.12,1.47-8.06,2.78-12.66a19,19,0,0,1,9.18-11.65c12.54-6.73,25.8-3.15,30.34-.44C210.12,298.46,209.72,316.78,209.72,316.78Z"/><path class="cls-11" d="M163.73,298.48s-8.32,9.89-11.06,27.57-6.52,30.73,4.13,36.57c11.52,6.32,10.53-6.64,10.36-10.16s-10-13.14-3.43-40.25C165.85,303.46,163.73,298.48,163.73,298.48Z"/><path class="cls-19" d="M161.79,335v0c0,.13,0,.84.06,1.94,0,.68.07,1.51.13,2.45.39,6,1.55,16.24,5,19.81,1.35,1.41,3.94,2.12,7,2.4v-4.68a18.45,18.45,0,0,1-7.66-7.11A43.84,43.84,0,0,1,162,336.77Z"/><path class="cls-10" d="M207.34,340.79a1.47,1.47,0,1,1-1.47-1.47A1.47,1.47,0,0,1,207.34,340.79Z"/></g></g></g></svg>