<svg xmlns="http://www.w3.org/2000/svg" viewBox="0 0 300 231.46"><defs><style>.cls-1{fill:#00f6ff;}</style></defs><g id="Layer_2" data-name="Layer 2"><g id="Layer_1-2" data-name="Layer 1"><path d="M0,0H0A118.68,118.68,0,0,1,118.68,118.68V231.46a0,0,0,0,1,0,0h0A118.68,118.68,0,0,1,0,112.78V0A0,0,0,0,1,0,0Z"/><path class="cls-1" d="M129.08,135.5h0V75.61A75.61,75.61,0,0,1,204.69,0h0V59.9A75.61,75.61,0,0,1,129.08,135.5Z"/><path d="M129.08,147.25h86.71A84.21,84.21,0,0,1,300,231.46v0a0,0,0,0,1,0,0H213.29a84.21,84.21,0,0,1-84.21-84.21v0A0,0,0,0,1,129.08,147.25Z"/></g></g></svg>