<svg xmlns="http://www.w3.org/2000/svg" viewBox="0 0 309.57 72"><defs><style>.cls-1,.cls-3{fill:#fff;}.cls-2{fill:#00f6ff;}.cls-3{font-size:41.07px;font-family:Poppins-Bold, Poppins;font-weight:700;}</style></defs><g id="Layer_2" data-name="Layer 2"><g id="Layer_1-2" data-name="Layer 1"><path class="cls-1" d="M0,0H0A29.85,29.85,0,0,1,29.85,29.85V58.21a0,0,0,0,1,0,0h0A29.85,29.85,0,0,1,0,28.36V0A0,0,0,0,1,0,0Z"/><path class="cls-2" d="M32.46,34.08h0V19a19,19,0,0,1,19-19h0V15.06A19,19,0,0,1,32.46,34.08Z"/><path class="cls-1" d="M32.46,37h21.8A21.18,21.18,0,0,1,75.44,58.21v0a0,0,0,0,1,0,0H53.64A21.18,21.18,0,0,1,32.46,37v0A0,0,0,0,1,32.46,37Z"/><text class="cls-3" transform="translate(89.8 47.11)">Kadilangu</text></g></g></svg>